<svg width="14" height="14" viewBox="0 0 14 14" fill="none" xmlns="http://www.w3.org/2000/svg">
<path fill-rule="evenodd" clip-rule="evenodd" d="M6.83866 1.42376C6.93343 1.24186 7.16627 1.24286 7.25982 1.42556L12.8268 12.2977C12.921 12.4817 12.8037 12.7121 12.6158 12.7121H1.38424C1.1955 12.7121 1.07827 12.4799 1.17413 12.2959L6.83866 1.42376ZM8.24469 0.779894C7.71456 -0.255424 6.39517 -0.261071 5.85813 0.76968L0.193604 11.6418C-0.349574 12.6844 0.314677 14 1.38424 14H12.6158C13.6807 14 14.3456 12.6947 13.8117 11.6521L8.24469 0.779894ZM7.68463 4.52441H6.38379V5.92273H7.68463V4.52441ZM7.68463 7.32106H6.38379V11.516H7.68463V7.32106Z" fill="#F72407"/>
</svg>
