<svg width="15" height="10" viewBox="0 0 16 16" fill="none" xmlns="http://www.w3.org/2000/svg">
<path d="M7.94457 6.23243L3.17134 1.45921L2.99457 1.28243L2.81779 1.45921L1.40379 2.87321L1.22701 3.04999L1.40379 3.22676L6.17701 7.99999L1.40379 12.7732L1.22701 12.95L1.40379 13.1268L2.81779 14.5408L2.99457 14.7175L3.17134 14.5408L7.94457 9.76754L12.7178 14.5408L12.8946 14.7175L13.0713 14.5408L14.4853 13.1268L14.6621 12.95L14.4853 12.7732L9.71212 7.99999L14.4853 3.22676L14.6621 3.04999L14.4853 2.87321L13.0713 1.45921L12.8946 1.28243L12.7178 1.45921L7.94457 6.23243Z" stroke="#F62407" stroke-width="0.5"/>
</svg>
