<svg width="20" height="17" xmlns="http://www.w3.org/2000/svg" fill="none">

 <g>
  <title>Layer 1</title>
  <path id="svg_1" fill="#0071ce" d="m7.59252,4.51852l3.33331,0l-3.99998,4l-4,-4l3.33333,0l0,-4.66667l1.33334,0l0,4.66667zm-6,6.00003l10.66671,0l0,-4.6667l1.3333,0l0,5.3333c0,0.1768 -0.0703,0.3464 -0.1953,0.4714c-0.125,0.1251 -0.2946,0.1953 -0.4714,0.1953l-11.99998,0c-0.17681,0 -0.34638,-0.0702 -0.47141,-0.1953c-0.12502,-0.125 -0.19526,-0.2946 -0.19526,-0.4714l0,-5.3333l1.33334,0l0,4.6667z"/>
 </g>
</svg>