<svg width="19" height="21" viewBox="0 0 19 21" fill="none" xmlns="http://www.w3.org/2000/svg">
<path opacity="0.5" d="M18.875 6.33325V19.8676C18.876 20.0044 18.85 20.1401 18.7985 20.2668C18.747 20.3936 18.6711 20.5089 18.5751 20.6063C18.479 20.7037 18.3647 20.7813 18.2387 20.8345C18.1127 20.8877 17.9774 20.9156 17.8406 20.9166H1.15937C0.885222 20.9166 0.622283 20.8078 0.42833 20.614C0.234376 20.4202 0.125276 20.1574 0.125 19.8833V1.11659C0.125 0.55721 0.592708 0.083252 1.16875 0.083252H12.6219L18.875 6.33325ZM16.7917 7.37492H11.5833V2.16659H2.20833V18.8333H16.7917V7.37492ZM5.33333 5.29159H8.45833V7.37492H5.33333V5.29159ZM5.33333 9.45825H13.6667V11.5416H5.33333V9.45825ZM5.33333 13.6249H13.6667V15.7083H5.33333V13.6249Z" fill="#77787C"/>
</svg>
