<svg width="14" height="15" viewBox="0 0 14 15" fill="none" xmlns="http://www.w3.org/2000/svg">
<path d="M11.0482 10.5737L14 13.5248L13.0248 14.5L10.0737 11.5482C8.9757 12.4285 7.60993 12.9072 6.20262 12.9052C2.77877 12.9052 0 10.1265 0 6.70262C0 3.27877 2.77877 0.5 6.20262 0.5C9.62646 0.5 12.4052 3.27877 12.4052 6.70262C12.4072 8.10993 11.9285 9.4757 11.0482 10.5737ZM9.66575 10.0624C10.5404 9.16291 11.0289 7.95722 11.0269 6.70262C11.0269 4.03687 8.86768 1.87836 6.20262 1.87836C3.53687 1.87836 1.37836 4.03687 1.37836 6.70262C1.37836 9.36768 3.53687 11.5269 6.20262 11.5269C7.45722 11.5289 8.66291 11.0404 9.56237 10.1657L9.66575 10.0624V10.0624Z" fill="#0071CE"/>
</svg>
