<?xml version="1.0" encoding="utf-8"?>
<!-- Generator: Adobe Illustrator 27.0.0, SVG Export Plug-In . SVG Version: 6.00 Build 0)  -->
<svg width="104" height="82" version="1.1" id="Layer_1" xmlns="http://www.w3.org/2000/svg" xmlns:xlink="http://www.w3.org/1999/xlink" x="0px" y="0px"
	 viewBox="0 0 104 82" style="enable-background:new 0 0 104 82;" xml:space="preserve">
<style type="text/css">
	.st0{fill:#F7F7F7;}
	.st1{fill:#FFFFFF;}
	.st2{fill:none;}
	.st3{fill-rule:evenodd;clip-rule:evenodd;fill:#C6C6C6;}
</style>
<ellipse class="st0" cx="53" cy="70" rx="51" ry="12"/>
<rect x="27" y="9" class="st1" width="51" height="60"/>
<rect x="25" class="st2" width="71" height="71"/>
<path class="st3" d="M80.4,11c-0.1-1.7-1-3-2.6-3.6C77.3,7.1,76.7,7,76.1,7c-1.3,0-2.5,0-3.8,0c-0.5,0-1,0-1.4,0c0,0-0.1,0-0.1,0h0
	c-0.2,0-0.5,0-0.7-0.2c-0.6-0.9-1.6-1.2-2.6-1.1c-1.6,0-3.2,0-4.9,0h0c-0.8,0-1.6,0-2.4,0h-0.7c-1-3.4-3.2-5.5-6.8-5.5
	c-3.6,0-5.8,2.1-6.8,5.5h-0.7h-7.5c-0.9,0-1.7,0.3-2.3,1c-0.1,0.1-0.3,0.3-0.4,0.3S34.6,7,34.4,7c-1.7,0-3.5,0-5.3,0
	c-1,0-1.9,0.3-2.7,1c-0.8,0.6-1.2,1.5-1.4,2.5C25,10.8,25,11.2,25,11.7v54.6c0,0.1,0,0.2,0,0.2c0,0.2,0,0.3,0,0.5
	c0,0.9,0.4,1.8,0.9,2.5c0.6,0.7,1.3,1.2,2.2,1.4c0.1,0,0.2,0.1,0.3,0.1l0,0c0,0,0.1,0,0.1,0.1l48.3,0c0.1,0,0.1,0,0.2-0.1l0,0
	c0.1,0,0.2-0.1,0.4-0.1c1.4-0.4,2.4-1.3,2.9-2.8c0.1-0.6,0.2-1.1,0.2-1.7V11.6c0-0.1,0-0.1,0-0.2v0v0v0v0v0v0
	C80.4,11.3,80.4,11.1,80.4,11z M37.5,8.3h9c0.1,0,0.1,0,0.2,0c0.1,0,0.2,0,0.4,0c0.9,0,1.4-0.5,1.5-1.4c0-0.4,0.1-0.9,0.2-1.3
	c0.3-0.9,0.9-1.7,1.8-2.2c0.8-0.5,1.8-0.7,2.8-0.6c1,0.1,1.9,0.6,2.5,1.3c0.7,0.7,1,1.6,1.1,2.6c0.1,1.1,0.6,1.6,1.7,1.6h8.6H68v5.5
	H37.5L37.5,8.3z M75.7,68.3c-15.3,0-30.7,0-46,0c-1.5,0-2-0.6-2-2c0-18.2,0-36.4,0-54.6c0-1.5,0.6-2.1,2-2c1,0,2,0,3,0h0
	c0.4,0,0.8,0,1.3,0c0.1,0,0.3,0,0.5,0h0c0.1,0,0.2,0,0.3,0v2.8h-1c-0.2,0-0.4,0-0.6,0c-0.4,0-0.7,0-1.1,0c-0.8,0-1.4,0.6-1.4,1.4
	v0.6v49c0,0.1,0,0.1,0,0.2c0,0.1,0,0.3,0,0.4c0,0.3,0.2,0.7,0.4,0.9c0.2,0.2,0.6,0.4,0.9,0.4c0.2,0,0.4,0,0.6,0H46
	c0.3,0,0.5,0,0.8-0.1c0.3-0.1,0.6-0.2,0.8-0.5c0.2-0.2,0.3-0.5,0.3-0.9c0-0.3-0.1-0.6-0.3-0.8c-0.2-0.2-0.5-0.4-0.8-0.5
	c-0.3,0-0.5-0.1-0.8,0H34.2h-0.9V15.3c0.1,0,0.3,0,0.4,0h0c0.4,0,0.8,0,1.2,0c0.2,0,0.3,0.1,0.4,0.3c0.7,0.8,1.5,1.1,2.6,1.1h19.8
	c1.1,0,2.2,0,3.3,0h0h0h0h0h0h0c2.2,0,4.4,0,6.6,0c1.1,0,2-0.3,2.7-1.2c0.1-0.1,0.3-0.2,0.5-0.2c0.3,0,0.7,0,1,0c0.1,0,0.3,0,0.4,0
	c0.2,0.6,0.3,45.2,0.1,47.5c-0.1,0-0.1,0-0.2,0c-0.2,0-0.4,0-0.6,0H59.5c-0.2,0-0.5,0-0.7,0c-0.3,0-0.6,0.2-0.8,0.4
	c-0.2,0.2-0.3,0.6-0.3,0.9c0,0.3,0.1,0.6,0.3,0.9c0.2,0.2,0.5,0.4,0.8,0.4c0.2,0,0.4,0,0.6,0h13.7h0.3c0.9,0,1.4-0.6,1.5-1.4v-0.6
	c0-16.3,0-32.6,0-49c0-1.3-0.5-2.1-2-2c-0.5,0-0.9,0-1.4,0c-0.2,0-0.5,0-0.7,0c0-0.1,0-0.2,0-0.3v0v0v0c0-0.1,0-0.3,0-0.4V9.8
	c0.1,0,0.2-0.1,0.3-0.1c0.6,0,1.2,0,1.8,0h0h0h0h0h0h0h0c1.2,0,2.3,0,3.5,0c0.9,0,1.4,0.6,1.5,1.4v0.6c0,18.2,0,36.4,0,54.6
	C77.7,67.8,77.1,68.3,75.7,68.3z"/>
<path class="st3" d="M40.2,35.4c1,1,2.4,1.5,3.8,1.5c1.4,0,2.8-0.6,3.8-1.6c0.6-0.6,0.6-1.4,0.1-1.9c-0.5-0.5-1.3-0.6-1.9-0.1
	c-0.1,0-0.1,0.1-0.2,0.1l0,0v0h0l0,0c-0.1,0-0.1,0.1-0.2,0.1c-0.5,0.4-1.1,0.6-1.7,0.6c-0.6,0-1.2-0.2-1.7-0.6
	c-0.2-0.1-0.3-0.3-0.5-0.4c-0.2-0.1-0.4-0.2-0.6-0.2c-0.2,0-0.4,0-0.6,0.1s-0.4,0.2-0.5,0.4c-0.1,0.2-0.2,0.4-0.3,0.6
	c0,0.2,0,0.5,0.1,0.7C39.8,35,40,35.2,40.2,35.4z"/>
<path class="st3" d="M61.6,36.9c-1.6-0.1-2.8-0.5-3.9-1.5c-0.4-0.3-0.6-0.7-0.5-1.2c0-0.2,0.1-0.5,0.2-0.6s0.3-0.3,0.5-0.4
	c0.2-0.1,0.4-0.1,0.7-0.1c0.2,0,0.5,0.1,0.7,0.2c0.1,0.1,0.2,0.1,0.3,0.2c0.1,0,0.1,0.1,0.2,0.1c0.5,0.4,1.1,0.6,1.7,0.6
	c0.6,0,1.2-0.2,1.7-0.6c0.1,0,0.1-0.1,0.2-0.1l0,0l0,0v0h0c0.1-0.1,0.1-0.1,0.2-0.2c0.3-0.2,0.6-0.3,0.9-0.3c0.3,0,0.6,0.2,0.9,0.4
	c0.2,0.3,0.4,0.6,0.3,0.9c0,0.3-0.1,0.7-0.4,0.9c-0.7,0.7-1.6,1.3-2.6,1.5c-0.3,0.1-0.6,0.1-0.9,0.1C61.8,36.9,61.7,36.9,61.6,36.9z
	"/>
<path class="st3" d="M53.4,42.3L53.4,42.3L53.4,42.3c-0.2,0-0.4,0-0.6,0c-0.2,0-0.4,0-0.6,0h0c-0.4,0-0.9,0-1.3,0
	c-0.8,0-1.4,0.6-1.4,1.3c0,0.2,0,0.3,0.1,0.5c0.1,0.2,0.2,0.3,0.3,0.4c0.1,0.1,0.3,0.2,0.4,0.3c0.2,0.1,0.3,0.1,0.5,0.1
	c1.3,0,2.6,0,3.9,0c0.8,0,1.4-0.6,1.3-1.4c0-0.7-0.6-1.3-1.4-1.3C54.2,42.3,53.8,42.3,53.4,42.3L53.4,42.3z"/>
<path class="st3" d="M51.4,64.1c0-0.3,0.1-0.5,0.2-0.8c0.1-0.2,0.4-0.4,0.6-0.5c0.2-0.1,0.5-0.1,0.8-0.1c0.3,0,0.5,0.2,0.7,0.4
	c0.2,0.2,0.3,0.4,0.4,0.7c0.1,0.3,0,0.5-0.1,0.8c-0.1,0.2-0.3,0.5-0.5,0.6c-0.2,0.2-0.5,0.2-0.7,0.3c-0.4,0-0.7-0.1-1-0.4
	C51.5,64.8,51.4,64.5,51.4,64.1z"/>
<path class="st3" d="M52,8.1c0.2,0.2,0.5,0.2,0.8,0.2c0.4,0,0.7-0.2,0.9-0.4c0.3-0.2,0.4-0.6,0.4-0.9c0-0.3-0.1-0.5-0.2-0.8
	c-0.1-0.2-0.4-0.4-0.6-0.5c-0.2-0.1-0.5-0.1-0.8-0.1c-0.3,0-0.5,0.2-0.7,0.4c-0.2,0.2-0.3,0.4-0.4,0.7c-0.1,0.3,0,0.5,0.1,0.8
	C51.6,7.7,51.7,7.9,52,8.1z"/>
</svg>
