<svg width="14" height="15" viewBox="0 0 14 15" fill="none" xmlns="http://www.w3.org/2000/svg">
<path d="M1.22671 10.8332C0.944887 10.3459 0.725817 9.82485 0.574707 9.28255C0.903579 9.11528 1.17977 8.8603 1.37273 8.54581C1.56568 8.23132 1.66788 7.86959 1.66802 7.50062C1.66816 7.13166 1.56623 6.76985 1.37351 6.45522C1.18079 6.14058 0.904787 5.8854 0.57604 5.71788C0.877398 4.62821 1.45119 3.63318 2.24337 2.82655C2.55277 3.0277 2.91179 3.13932 3.28069 3.14907C3.6496 3.15881 4.01401 3.0663 4.33359 2.88177C4.65318 2.69724 4.91548 2.42788 5.09146 2.10351C5.26744 1.77914 5.35024 1.4124 5.33071 1.04388C6.42545 0.760963 7.57419 0.761422 8.66871 1.04522C8.64934 1.41373 8.73231 1.78041 8.90843 2.10469C9.08455 2.42897 9.34695 2.6982 9.66659 2.88259C9.98624 3.06698 10.3507 3.15934 10.7196 3.14945C11.0884 3.13956 11.4474 3.0278 11.7567 2.82655C12.1427 3.21988 12.4854 3.66722 12.7734 4.16655C13.062 4.66588 13.278 5.18655 13.4254 5.71722C13.0965 5.88448 12.8203 6.13946 12.6274 6.45395C12.4344 6.76844 12.3322 7.13018 12.3321 7.49914C12.3319 7.8681 12.4339 8.22992 12.6266 8.54455C12.8193 8.85918 13.0953 9.11437 13.424 9.28188C13.1227 10.3716 12.5489 11.3666 11.7567 12.1732C11.4473 11.9721 11.0883 11.8604 10.7194 11.8507C10.3505 11.8409 9.98607 11.9335 9.66649 12.118C9.3469 12.3025 9.08461 12.5719 8.90862 12.8963C8.73264 13.2206 8.64984 13.5874 8.66937 13.9559C7.57463 14.2388 6.42589 14.2383 5.33137 13.9545C5.35074 13.586 5.26777 13.2194 5.09165 12.8951C4.91554 12.5708 4.65314 12.3016 4.33349 12.1172C4.01384 11.9328 3.64941 11.8404 3.28052 11.8503C2.91164 11.8602 2.55268 11.972 2.24337 12.1732C1.84937 11.7712 1.50777 11.3209 1.22671 10.8332ZM5.00004 10.9639C5.71046 11.3736 6.2446 12.0312 6.50004 12.8105C6.83271 12.8419 7.16671 12.8425 7.49937 12.8112C7.75497 12.0318 8.28937 11.3742 9.00004 10.9645C9.71019 10.5537 10.5471 10.4195 11.35 10.5879C11.5434 10.3159 11.71 10.0259 11.8487 9.72255C11.3017 9.11151 10.9995 8.32002 11 7.49988C11 6.65988 11.3134 5.87522 11.8487 5.27722C11.7091 4.97398 11.5417 4.6843 11.3487 4.41188C10.5462 4.58009 9.7099 4.4462 9.00004 4.03588C8.28962 3.62613 7.75548 2.96854 7.50004 2.18922C7.16737 2.15788 6.83337 2.15722 6.50071 2.18855C6.24511 2.96798 5.71071 3.62559 5.00004 4.03522C4.2899 4.44609 3.45303 4.58023 2.65004 4.41188C2.45708 4.68407 2.29013 4.97379 2.15137 5.27722C2.69842 5.88826 3.00063 6.67974 3.00004 7.49988C3.00004 8.33988 2.68671 9.12455 2.15137 9.72255C2.29102 10.0258 2.4584 10.3155 2.65137 10.5879C3.45385 10.4197 4.29018 10.5536 5.00004 10.9639ZM7.00004 9.49988C6.46961 9.49988 5.9609 9.28917 5.58583 8.9141C5.21075 8.53902 5.00004 8.03031 5.00004 7.49988C5.00004 6.96945 5.21075 6.46074 5.58583 6.08567C5.9609 5.7106 6.46961 5.49988 7.00004 5.49988C7.53047 5.49988 8.03918 5.7106 8.41425 6.08567C8.78933 6.46074 9.00004 6.96945 9.00004 7.49988C9.00004 8.03031 8.78933 8.53902 8.41425 8.9141C8.03918 9.28917 7.53047 9.49988 7.00004 9.49988ZM7.00004 8.16655C7.17685 8.16655 7.34642 8.09631 7.47144 7.97129C7.59647 7.84626 7.66671 7.67669 7.66671 7.49988C7.66671 7.32307 7.59647 7.1535 7.47144 7.02848C7.34642 6.90345 7.17685 6.83322 7.00004 6.83322C6.82323 6.83322 6.65366 6.90345 6.52864 7.02848C6.40361 7.1535 6.33337 7.32307 6.33337 7.49988C6.33337 7.67669 6.40361 7.84626 6.52864 7.97129C6.65366 8.09631 6.82323 8.16655 7.00004 8.16655Z" fill="#0071CE"/>
</svg>
